# xmcd
#
# Track frame offsets: 
#        150
#        15531
#        31230
#        54361
#        72137
#        89919
#        113436
#        122663
#        137975
#        162154
#        176241
#        191689
#        224350
#        250611
#
# Disc length: 3569 seconds
#
# Revision: 1
# Processed by: cddbd v1.5.2PL0 Copyright (c) Steve Scherf et al.
# Submitted via: ExactAudioCopyFreeDBPlugin 1.0
#
DISCID=c10def0e
DTITLE=Various Artist - image live best
DYEAR=2004
DGENRE=relaxing
TTITLE0=鳥山雄司 - 鳥山雄司「The Song of Life」(2001)
TTITLE1=小松亮太 with 鳥山雄司 - 小松亮太with鳥山雄司「Starneon」(2003)
TTITLE2=木村大 with 鳥山雄司 - 木村 大with鳥山雄司「三千院」(2001)
TTITLE3=羽毛田丈史 - 羽毛田丈史「地球に乾杯」(2001)
TTITLE4=羽毛田丈史 - 羽毛田丈史「文明の道」(2003)
TTITLE5=松谷卓 - 松谷 卓「TAKUMI 匠」(2003)
TTITLE6=Gontiti - ゴンチチ「放課後の音楽室」(2003)
TTITLE7=加古隆 - 加古 隆「黄昏のワルツ」(2001)
TTITLE8=加古隆 with 宮本文昭 - 加古 隆with宮本文昭「パリは燃えているか」(2001)
TTITLE9=宮本文昭 - 宮本文昭「風笛」(2001)
TTITLE10=小松亮太 with 葉加瀬太郎 - 小松亮太with葉加瀬太郎「Libertango」(2001)
TTITLE11=葉加瀬太郎 with 小松亮太&Deep Forest - 葉加瀬太郎with小松亮太＆ディープ・フォレスト「情熱大陸」(
TTITLE11=2001)
TTITLE12=All Stars - オールスターズ「My Favorite Things」(2001)
TTITLE13=羽毛田丈史 - 羽毛田丈司「Joyful Air Line」(2004)
EXTD=YEAR: 2004
EXTT0=
EXTT1=
EXTT2=
EXTT3=
EXTT4=
EXTT5=
EXTT6=
EXTT7=
EXTT8=
EXTT9=
EXTT10=
EXTT11=
EXTT12=
EXTT13=
PLAYORDER=
